<mxfile host="app.diagrams.net" agent="Mozilla/5.0 (Windows NT 10.0; Win64; x64) AppleWebKit/537.36 (KHTML, like Gecko) Chrome/132.0.0.0 Safari/537.36" version="26.0.10">
  <diagram name="Page-1" id="xCOVgiUl3VfG1hQQ-8zS">
    <mxGraphModel dx="955" dy="548" grid="1" gridSize="10" guides="1" tooltips="1" connect="1" arrows="1" fold="1" page="1" pageScale="1" pageWidth="850" pageHeight="1100" math="0" shadow="0">
      <root>
        <mxCell id="0" />
        <mxCell id="1" parent="0" />
        <mxCell id="mN81FZTNj96IZXz01NN4-15" style="rounded=0;orthogonalLoop=1;jettySize=auto;html=1;entryX=0;entryY=0.5;entryDx=0;entryDy=0;" edge="1" parent="1" target="mN81FZTNj96IZXz01NN4-11">
          <mxGeometry relative="1" as="geometry">
            <mxPoint x="140" y="200" as="sourcePoint" />
          </mxGeometry>
        </mxCell>
        <mxCell id="mN81FZTNj96IZXz01NN4-18" style="edgeStyle=orthogonalEdgeStyle;rounded=0;orthogonalLoop=1;jettySize=auto;html=1;exitX=1;exitY=0.5;exitDx=0;exitDy=0;entryX=0;entryY=0.5;entryDx=0;entryDy=0;" edge="1" parent="1" source="mN81FZTNj96IZXz01NN4-9" target="mN81FZTNj96IZXz01NN4-17">
          <mxGeometry relative="1" as="geometry" />
        </mxCell>
        <mxCell id="mN81FZTNj96IZXz01NN4-9" value="Open terminal and navigate to json-tool.exe directory" style="rounded=0;whiteSpace=wrap;html=1;" vertex="1" parent="1">
          <mxGeometry x="191" y="175" width="170" height="50" as="geometry" />
        </mxCell>
        <mxCell id="mN81FZTNj96IZXz01NN4-13" style="edgeStyle=orthogonalEdgeStyle;rounded=0;orthogonalLoop=1;jettySize=auto;html=1;entryX=0.5;entryY=0;entryDx=0;entryDy=0;" edge="1" parent="1" source="mN81FZTNj96IZXz01NN4-11" target="mN81FZTNj96IZXz01NN4-9">
          <mxGeometry relative="1" as="geometry" />
        </mxCell>
        <mxCell id="mN81FZTNj96IZXz01NN4-11" value="Install json-tool.exe from GitHub repository" style="rounded=0;whiteSpace=wrap;html=1;" vertex="1" parent="1">
          <mxGeometry x="191" y="70" width="170" height="50" as="geometry" />
        </mxCell>
        <mxCell id="mN81FZTNj96IZXz01NN4-23" style="edgeStyle=orthogonalEdgeStyle;rounded=0;orthogonalLoop=1;jettySize=auto;html=1;entryX=0;entryY=0.5;entryDx=0;entryDy=0;" edge="1" parent="1" source="mN81FZTNj96IZXz01NN4-16" target="mN81FZTNj96IZXz01NN4-9">
          <mxGeometry relative="1" as="geometry" />
        </mxCell>
        <mxCell id="mN81FZTNj96IZXz01NN4-16" value="" style="sketch=0;pointerEvents=1;shadow=0;dashed=0;html=1;strokeColor=none;fillColor=#000000;labelPosition=center;verticalLabelPosition=bottom;verticalAlign=top;align=center;outlineConnect=0;shape=mxgraph.veeam2.laptop;" vertex="1" parent="1">
          <mxGeometry x="41" y="169" width="98" height="62" as="geometry" />
        </mxCell>
        <mxCell id="mN81FZTNj96IZXz01NN4-29" style="edgeStyle=orthogonalEdgeStyle;rounded=0;orthogonalLoop=1;jettySize=auto;html=1;exitX=1;exitY=0.5;exitDx=0;exitDy=0;" edge="1" parent="1" source="mN81FZTNj96IZXz01NN4-17" target="mN81FZTNj96IZXz01NN4-21">
          <mxGeometry relative="1" as="geometry" />
        </mxCell>
        <mxCell id="mN81FZTNj96IZXz01NN4-17" value="To begin, run &lt;b&gt;json-tool start&lt;/b&gt;" style="rounded=0;whiteSpace=wrap;html=1;" vertex="1" parent="1">
          <mxGeometry x="420" y="175" width="170" height="50" as="geometry" />
        </mxCell>
        <mxCell id="mN81FZTNj96IZXz01NN4-19" value="Local Machine" style="text;html=1;align=center;verticalAlign=middle;resizable=0;points=[];autosize=1;strokeColor=none;fillColor=none;" vertex="1" parent="1">
          <mxGeometry x="40" y="231" width="100" height="30" as="geometry" />
        </mxCell>
        <mxCell id="mN81FZTNj96IZXz01NN4-25" style="edgeStyle=orthogonalEdgeStyle;rounded=0;orthogonalLoop=1;jettySize=auto;html=1;exitX=0.5;exitY=1;exitDx=0;exitDy=0;entryX=0.5;entryY=0;entryDx=0;entryDy=0;" edge="1" parent="1" source="mN81FZTNj96IZXz01NN4-21" target="mN81FZTNj96IZXz01NN4-24">
          <mxGeometry relative="1" as="geometry" />
        </mxCell>
        <mxCell id="mN81FZTNj96IZXz01NN4-21" value="Provide directory path to your JSON file" style="rounded=0;whiteSpace=wrap;html=1;" vertex="1" parent="1">
          <mxGeometry x="640" y="175" width="170" height="50" as="geometry" />
        </mxCell>
        <mxCell id="mN81FZTNj96IZXz01NN4-28" style="edgeStyle=orthogonalEdgeStyle;rounded=0;orthogonalLoop=1;jettySize=auto;html=1;exitX=0;exitY=0.5;exitDx=0;exitDy=0;entryX=1;entryY=0.5;entryDx=0;entryDy=0;" edge="1" parent="1" source="mN81FZTNj96IZXz01NN4-24" target="mN81FZTNj96IZXz01NN4-27">
          <mxGeometry relative="1" as="geometry" />
        </mxCell>
        <mxCell id="mN81FZTNj96IZXz01NN4-24" value="Select&amp;nbsp;&lt;div&gt;action&lt;/div&gt;" style="rhombus;whiteSpace=wrap;html=1;" vertex="1" parent="1">
          <mxGeometry x="685" y="270" width="80" height="80" as="geometry" />
        </mxCell>
        <mxCell id="mN81FZTNj96IZXz01NN4-26" style="edgeStyle=orthogonalEdgeStyle;rounded=0;orthogonalLoop=1;jettySize=auto;html=1;exitX=1;exitY=0.5;exitDx=0;exitDy=0;entryX=0.5;entryY=1;entryDx=0;entryDy=0;" edge="1" parent="1" source="mN81FZTNj96IZXz01NN4-24" target="mN81FZTNj96IZXz01NN4-24">
          <mxGeometry relative="1" as="geometry" />
        </mxCell>
        <mxCell id="mN81FZTNj96IZXz01NN4-27" value="End process" style="ellipse;whiteSpace=wrap;html=1;" vertex="1" parent="1">
          <mxGeometry x="540" y="290" width="100" height="40" as="geometry" />
        </mxCell>
      </root>
    </mxGraphModel>
  </diagram>
</mxfile>
